<svg width="1000" height="330" viewBox="0 0 1000 330" fill="none" xmlns="http://www.w3.org/2000/svg">
<path d="M24.4455 144.269L84.2306 204.054H0V249.368H276.657V204.054H192.329L252.114 144.269L220.072 112.227L159.793 172.505V87.1902H114.479V170.218L56.4877 112.227L24.4455 144.269Z" fill="#164EE9"/>
<path d="M388.05 94.3027H417.36L403.816 157.808H448.225L461.77 94.3027H491.08L457.995 249.735H428.685L442.23 185.786H397.82L384.276 249.735H355.188L388.05 94.3027ZM518.903 203.771C518.607 204.956 518.459 206.214 518.459 207.546C518.459 212.875 520.457 217.316 524.454 220.869C528.599 224.422 534.002 226.198 540.663 226.198C547.621 226.198 553.172 224.94 557.317 222.423C561.462 219.907 564.644 216.946 566.865 213.541L589.07 227.53C587.293 230.491 584.925 233.451 581.964 236.412C579.151 239.373 575.599 242.111 571.306 244.628C567.161 246.996 562.202 248.921 556.429 250.401C550.804 252.029 544.216 252.844 536.667 252.844C529.857 252.844 523.566 251.807 517.793 249.735C512.168 247.514 507.283 244.554 503.138 240.853C499.141 237.004 495.958 232.489 493.59 227.308C491.369 221.979 490.259 216.132 490.259 209.767C490.259 199.701 491.739 190.227 494.7 181.345C497.809 172.463 502.25 164.691 508.023 158.03C513.796 151.369 520.901 146.113 529.339 142.265C537.777 138.416 547.473 136.491 558.427 136.491C566.125 136.491 572.786 137.75 578.411 140.266C584.184 142.635 588.921 145.891 592.622 150.036C596.323 154.033 599.062 158.622 600.838 163.803C602.762 168.984 603.725 174.313 603.725 179.79C603.725 181.567 603.577 183.417 603.28 185.342C603.132 187.118 602.762 189.486 602.17 192.447L599.728 203.771H518.903ZM553.986 161.805C547.029 161.805 540.96 163.581 535.778 167.134C530.745 170.538 526.971 174.757 524.454 179.79H576.413C576.413 174.165 574.637 169.798 571.084 166.69C567.679 163.433 561.98 161.805 553.986 161.805ZM692.166 247.07C689.206 249.143 686.171 250.623 683.063 251.511C679.954 252.399 676.919 252.844 673.959 252.844C670.702 252.844 667.593 252.251 664.633 251.067C661.672 250.031 659.082 248.551 656.861 246.626C654.641 244.554 652.864 242.111 651.532 239.299C650.348 236.338 649.756 233.081 649.756 229.529C649.756 226.864 650.052 224.274 650.644 221.757L674.847 120.726L672.626 119.172L642.872 139.6L628.883 118.728L661.08 96.9673C664.041 94.8948 667.075 93.4145 670.184 92.5264C673.293 91.6382 676.327 91.1941 679.288 91.1941C682.544 91.1941 685.653 91.7862 688.614 92.9704C691.574 94.0067 694.165 95.561 696.385 97.6334C698.606 99.5578 700.308 102 701.492 104.961C702.825 107.774 703.491 110.956 703.491 114.509C703.491 116.877 703.195 119.468 702.603 122.281L678.4 223.311L680.62 224.866L710.374 204.437L724.363 225.31L692.166 247.07ZM820.799 247.07C817.838 249.143 814.803 250.623 811.695 251.511C808.586 252.399 805.552 252.844 802.591 252.844C799.334 252.844 796.226 252.251 793.265 251.067C790.304 250.031 787.714 248.551 785.493 246.626C783.273 244.554 781.497 242.111 780.164 239.299C778.98 236.338 778.388 233.081 778.388 229.529C778.388 226.716 778.684 224.126 779.276 221.757L792.599 166.024L790.378 164.469L760.624 184.897L746.635 164.025L778.832 142.265C781.793 140.192 784.827 138.712 787.936 137.824C791.045 136.936 794.079 136.491 797.04 136.491C800.296 136.491 803.405 137.084 806.366 138.268C809.326 139.304 811.917 140.858 814.137 142.931C816.358 144.855 818.06 147.298 819.244 150.258C820.577 153.071 821.243 156.254 821.243 159.806C821.243 162.619 820.947 165.209 820.355 167.578L807.032 223.311L809.252 224.866L839.006 204.437L852.995 225.31L820.799 247.07ZM840.117 106.959C840.117 109.92 839.525 112.733 838.34 115.397C837.304 117.914 835.824 120.134 833.899 122.058C831.975 123.835 829.681 125.315 827.016 126.499C824.499 127.536 821.835 128.054 819.022 128.054C816.062 128.054 813.323 127.536 810.807 126.499C808.29 125.315 806.07 123.835 804.145 122.058C802.221 120.134 800.667 117.914 799.482 115.397C798.446 112.733 797.928 109.92 797.928 106.959C797.928 103.999 798.446 101.26 799.482 98.7436C800.667 96.0791 802.221 93.8586 804.145 92.0823C806.07 90.1579 808.29 88.6776 810.807 87.6413C813.323 86.4571 816.062 85.865 819.022 85.865C821.835 85.865 824.499 86.4571 827.016 87.6413C829.681 88.6776 831.975 90.1579 833.899 92.0823C835.824 93.8586 837.304 96.0791 838.34 98.7436C839.525 101.26 840.117 103.999 840.117 106.959ZM944.546 197.554L956.092 224.866H958.757L967.417 208.878L989.621 220.425L982.516 234.636C976.595 246.774 967.343 252.844 954.76 252.844C948.543 252.844 943.436 251.437 939.439 248.625C935.59 245.812 932.407 241.297 929.891 235.08L922.563 217.982L885.926 252.399L867.052 232.637L911.461 191.115L900.359 164.691H897.694L887.036 181.789L865.72 168.022L876.378 151.591C882.743 141.524 891.329 136.491 902.135 136.491C913.089 136.491 921.083 142.265 926.116 153.811L933.222 170.687L968.305 137.824L987.179 157.586L944.546 197.554Z" fill="#164EE9"/>
</svg>
