<svg width="1388" height="456" viewBox="0 0 1388 456" fill="none" xmlns="http://www.w3.org/2000/svg">
<path d="M33.9303 199.225L116.912 282.207H0V345.103H384V282.207H266.952L349.934 199.225L305.459 154.751L221.793 238.417V120H158.897V235.242L78.4049 154.751L33.9303 199.225Z" fill="#007DFE"/>
<path d="M538.614 129.26H579.296L560.496 217.405H622.136L640.936 129.26H681.618L635.696 345H595.014L613.814 256.238H552.174L533.374 345H493L538.614 129.26ZM720.237 281.203C719.826 282.846 719.621 284.593 719.621 286.442C719.621 293.839 722.395 300.003 727.942 304.934C733.695 309.865 741.195 312.331 750.441 312.331C760.098 312.331 767.803 310.584 773.556 307.091C779.309 303.599 783.726 299.489 786.808 294.763L817.628 314.18C815.163 318.289 811.875 322.399 807.766 326.508C803.862 330.617 798.931 334.418 792.972 337.911C787.219 341.199 780.336 343.87 772.323 345.925C764.515 348.185 755.372 349.315 744.893 349.315C735.442 349.315 726.709 347.877 718.696 345C710.888 341.918 704.108 337.809 698.355 332.672C692.807 327.33 688.39 321.063 685.102 313.872C682.02 306.475 680.479 298.359 680.479 289.524C680.479 275.552 682.534 262.402 686.643 250.074C690.958 237.746 697.122 226.959 705.135 217.714C713.149 208.468 723.011 201.173 734.723 195.831C746.434 190.489 759.892 187.818 775.097 187.818C785.781 187.818 795.027 189.565 802.835 193.058C810.848 196.345 817.423 200.865 822.559 206.618C827.696 212.166 831.497 218.535 833.963 225.727C836.634 232.918 837.969 240.315 837.969 247.917C837.969 250.383 837.764 252.951 837.353 255.622C837.148 258.088 836.634 261.375 835.812 265.484L832.422 281.203H720.237ZM768.933 222.953C759.276 222.953 750.852 225.418 743.66 230.35C736.674 235.075 731.435 240.931 727.942 247.917H800.061C800.061 240.109 797.595 234.048 792.664 229.733C787.938 225.213 780.028 222.953 768.933 222.953ZM960.727 341.302C956.617 344.178 952.405 346.233 948.091 347.466C943.776 348.698 939.564 349.315 935.454 349.315C930.934 349.315 926.619 348.493 922.51 346.849C918.401 345.411 914.805 343.356 911.723 340.685C908.641 337.809 906.175 334.418 904.326 330.515C902.683 326.405 901.861 321.885 901.861 316.954C901.861 313.255 902.272 309.66 903.093 306.167L936.687 165.936L933.605 163.779L892.306 192.133L872.89 163.162L917.579 132.959C921.688 130.082 925.9 128.027 930.215 126.795C934.53 125.562 938.742 124.945 942.851 124.945C947.371 124.945 951.686 125.767 955.796 127.411C959.905 128.849 963.501 131.007 966.583 133.883C969.665 136.554 972.027 139.944 973.671 144.054C975.52 147.958 976.445 152.375 976.445 157.306C976.445 160.594 976.034 164.189 975.212 168.093L941.618 308.324L944.7 310.482L985.999 282.127L1005.42 311.098L960.727 341.302ZM1139.27 341.302C1135.16 344.178 1130.95 346.233 1126.63 347.466C1122.32 348.698 1118.11 349.315 1114 349.315C1109.48 349.315 1105.16 348.493 1101.05 346.849C1096.94 345.411 1093.35 343.356 1090.26 340.685C1087.18 337.809 1084.72 334.418 1082.87 330.515C1081.22 326.405 1080.4 321.885 1080.4 316.954C1080.4 313.05 1080.81 309.454 1081.64 306.167L1100.13 228.809L1097.05 226.651L1055.75 255.006L1036.33 226.035L1081.02 195.831C1085.13 192.955 1089.34 190.9 1093.65 189.667C1097.97 188.435 1102.18 187.818 1106.29 187.818C1110.81 187.818 1115.13 188.64 1119.24 190.284C1123.34 191.722 1126.94 193.879 1130.02 196.756C1133.1 199.427 1135.47 202.817 1137.11 206.927C1138.96 210.83 1139.88 215.248 1139.88 220.179C1139.88 224.083 1139.47 227.679 1138.65 230.966L1120.16 308.324L1123.24 310.482L1164.54 282.127L1183.96 311.098L1139.27 341.302ZM1166.08 146.828C1166.08 150.937 1165.26 154.841 1163.62 158.539C1162.18 162.032 1160.12 165.114 1157.45 167.785C1154.78 170.251 1151.6 172.305 1147.9 173.949C1144.41 175.387 1140.71 176.107 1136.8 176.107C1132.69 176.107 1128.89 175.387 1125.4 173.949C1121.91 172.305 1118.82 170.251 1116.15 167.785C1113.48 165.114 1111.32 162.032 1109.68 158.539C1108.24 154.841 1107.52 150.937 1107.52 146.828C1107.52 142.718 1108.24 138.917 1109.68 135.424C1111.32 131.726 1113.48 128.644 1116.15 126.178C1118.82 123.507 1121.91 121.452 1125.4 120.014C1128.89 118.37 1132.69 117.549 1136.8 117.549C1140.71 117.549 1144.41 118.37 1147.9 120.014C1151.6 121.452 1154.78 123.507 1157.45 126.178C1160.12 128.644 1162.18 131.726 1163.62 135.424C1165.26 138.917 1166.08 142.718 1166.08 146.828ZM1311.03 272.573L1327.06 310.482H1330.75L1342.77 288.291L1373.59 304.318L1363.73 324.042C1355.51 340.891 1342.67 349.315 1325.21 349.315C1316.58 349.315 1309.49 347.363 1303.94 343.459C1298.6 339.555 1294.18 333.288 1290.69 324.659L1280.52 300.927L1229.66 348.698L1203.47 321.269L1265.11 263.635L1249.7 226.959H1246L1231.21 250.691L1201.62 231.582L1216.41 208.776C1225.25 194.804 1237.16 187.818 1252.16 187.818C1267.37 187.818 1278.46 195.831 1285.45 211.858L1295.31 235.281L1344.01 189.667L1370.2 217.097L1311.03 272.573Z" fill="#007DFE"/>
</svg>
